HIERARCHY
ROOT Hips
{
 OFFSET 0.000000 0.000000 0.000000
 CHANNELS 6 Xposition Yposition Zposition Yrotation Xrotation Zrotation
 JOINT Chest
 {
  OFFSET 0.000000 9.588913 -0.003946
  CHANNELS 3 Yrotation Xrotation Zrotation
  JOINT Chest2
  {
   OFFSET 0.000000 9.541882 0.008053
   CHANNELS 3 Yrotation Xrotation Zrotation
   JOINT Chest3
   {
    OFFSET 0.000000 9.501360 0.000000
    CHANNELS 3 Yrotation Xrotation Zrotation
    JOINT Chest4
    {
     OFFSET 0.000000 9.491660 0.000000
     CHANNELS 3 Yrotation Xrotation Zrotation
     JOINT Neck
     {
      OFFSET 0.000000 14.331917 0.000000
      CHANNELS 3 Yrotation Xrotation Zrotation
      JOINT Head
      {
       OFFSET 0.000000 8.884799 0.017034
       CHANNELS 3 Yrotation Xrotation Zrotation
       End Site
       {
        OFFSET 0.000000 16.896195 0.008993
       }
      }
     }
     JOINT RightCollar
     {
      OFFSET -2.923010 9.499495 0.000000
      CHANNELS 3 Yrotation Xrotation Zrotation
      JOINT RightShoulder
      {
       OFFSET -13.795216 0.000000 0.000000
       CHANNELS 3 Yrotation Xrotation Zrotation
       JOINT RightElbow
       {
        OFFSET -30.272209 0.000000 0.000000
        CHANNELS 3 Yrotation Xrotation Zrotation
        JOINT RightWrist
        {
         OFFSET -24.478199 0.000000 0.000000
         CHANNELS 3 Yrotation Xrotation Zrotation
         End Site
         {
          OFFSET -18.090752 0.000000 0.000000
         }
        }
       }
      }
     }
     JOINT LeftCollar
     {
      OFFSET 2.923010 9.499495 0.000000
      CHANNELS 3 Yrotation Xrotation Zrotation
      JOINT LeftShoulder
      {
       OFFSET 13.795216 0.000000 0.000000
       CHANNELS 3 Yrotation Xrotation Zrotation
       JOINT LeftElbow
       {
        OFFSET 30.272209 0.000000 0.000000
        CHANNELS 3 Yrotation Xrotation Zrotation
        JOINT LeftWrist
        {
         OFFSET 24.478199 0.000000 0.000000
         CHANNELS 3 Yrotation Xrotation Zrotation
         End Site
         {
          OFFSET 18.090752 0.000000 0.000000
         }
        }
       }
      }
     }
    }
   }
  }
 }
 JOINT RightHip
 {
  OFFSET -7.826875 0.019532 0.001973
  CHANNELS 3 Yrotation Xrotation Zrotation
  JOINT RightKnee
  {
   OFFSET 0.000000 -40.546152 -0.001885
   CHANNELS 3 Yrotation Xrotation Zrotation
   JOINT RightAnkle
   {
    OFFSET 0.000000 -39.417092 -0.003189
    CHANNELS 3 Yrotation Xrotation Zrotation
    JOINT RightToe
    {
     OFFSET 0.000000 -7.579396 17.243563
     CHANNELS 3 Yrotation Xrotation Zrotation
     End Site
     {
      OFFSET 0.000000 -1.500329 6.694466
     }
    }
   }
  }
 }
 JOINT LeftHip
 {
  OFFSET 7.826875 0.019532 0.001973
  CHANNELS 3 Yrotation Xrotation Zrotation
  JOINT LeftKnee
  {
   OFFSET 0.000000 -40.546152 -0.001885
   CHANNELS 3 Yrotation Xrotation Zrotation
   JOINT LeftAnkle
   {
    OFFSET 0.000000 -39.417092 -0.003189
    CHANNELS 3 Yrotation Xrotation Zrotation
    JOINT LeftToe
    {
     OFFSET 0.000000 -7.579396 17.243563
     CHANNELS 3 Yrotation Xrotation Zrotation
     End Site
     {
      OFFSET 0.000000 -1.500329 6.694466
     }
    }
   }
  }
 }
}
MOTION
Frames: 10
Frame Time: 0.008333
-16.607627 54.460062 -26.894641 61.419128 -21.607818 3.561717 -12.757811 8.801795 -1.076858 -7.297587 5.079295 -0.258665 -9.134560 6.340737 -0.425131 -7.297593 5.079297 -0.258673 -5.145613 11.039689 -5.560659 -4.310212 -14.028458 -4.863257 12.146606 -4.645414 -8.766441 22.520288 -48.779319 59.787802 13.092147 -15.770974 1.775487 11.560229 -9.294763 -9.660877 -14.600504 -6.084865 -2.755474 -25.513459 -54.712128 -71.436032 2.735081 -22.360776 -36.224455 -29.320900 -17.975683 14.567753 -15.685989 -64.301880 -14.126715 121.938597 77.822649 111.851366 4.655003 -11.524301 1.130260 0.146371 -0.288354 0.030016 21.727866 -48.375938 -50.042084 90.850309 75.591913 111.340703 -6.301526 -8.217183 -5.001757 -0.070204 -5.778247 2.093993
-16.598757 54.463517 -26.911813 61.478589 -21.641458 3.466591 -12.677944 8.780385 -1.086812 -7.262882 5.064260 -0.281512 -9.091385 6.321554 -0.452917 -7.262886 5.064262 -0.281520 -5.042471 11.121446 -5.570240 -4.191289 -13.941884 -4.893828 12.017687 -4.686076 -8.595836 21.918469 -48.246028 60.084218 13.926006 -15.763518 2.368171 11.457092 -9.295608 -9.712771 -14.424802 -6.130136 -2.770782 -25.165768 -54.196462 -71.551287 2.225358 -22.105383 -36.817897 -29.149078 -17.848042 14.614525 -16.006108 -64.235677 -13.899205 121.702313 77.824424 111.557732 4.664952 -11.520099 1.147551 0.139346 -0.276446 0.025359 21.675845 -48.311976 -50.023948 90.838972 75.586687 111.397888 -6.254128 -8.239453 -4.959364 -0.073912 -5.763456 2.069749
-16.589783 54.466995 -26.928053 61.543349 -21.669372 3.374110 -12.594663 8.757658 -1.094330 -7.226648 5.047774 -0.301577 -9.046253 6.300621 -0.477176 -7.226652 5.047777 -0.301585 -4.930418 11.206157 -5.581092 -4.062415 -13.852301 -4.927655 11.877982 -4.718275 -8.434059 21.329069 -47.678467 60.362345 14.821707 -15.769500 2.970922 11.312864 -9.295763 -9.781472 -14.255579 -6.206551 -2.806235 -24.773175 -53.639448 -71.706991 1.736069 -21.901532 -37.433675 -29.005600 -17.738726 14.676890 -16.319259 -64.177444 -13.680896 121.478842 77.821746 111.276584 4.666539 -11.514435 1.172441 0.130841 -0.268196 0.016908 21.626045 -48.249995 -50.016092 90.822800 75.577687 111.450992 -6.205415 -8.265602 -4.915264 -0.080047 -5.744229 2.042738
-16.580418 54.470597 -26.942856 61.613573 -21.696768 3.283534 -12.506977 8.733823 -1.100733 -7.189417 5.031008 -0.319703 -8.999844 6.279380 -0.498993 -7.189420 5.031011 -0.319710 -4.803261 11.296852 -5.592433 -3.916890 -13.756539 -4.965111 11.721195 -4.741545 -8.278174 20.771396 -47.078087 60.620380 15.770683 -15.804576 3.575397 11.143814 -9.297470 -9.858665 -14.085270 -6.312540 -2.853788 -24.353923 -53.036780 -71.908820 1.277722 -21.774762 -38.083952 -28.886302 -17.655514 14.756003 -16.621163 -64.122727 -13.475697 121.278727 77.817474 111.019697 4.664688 -11.505136 1.203919 0.123928 -0.265975 0.006025 21.572412 -48.185967 -50.012894 90.803777 75.565960 111.501342 -6.154064 -8.297215 -4.871709 -0.089630 -5.719996 2.014407
-16.570301 54.474453 -26.955570 61.688391 -21.730051 3.193848 -12.416435 8.706921 -1.107278 -7.152392 5.015839 -0.336853 -8.953687 6.260157 -0.519630 -7.152395 5.015842 -0.336860 -4.652769 11.396521 -5.604520 -3.745612 -13.651489 -5.008179 11.549896 -4.755990 -8.121133 20.256077 -46.453122 60.860552 16.750363 -15.864589 4.176147 10.986883 -9.300460 -9.941732 -13.898226 -6.431428 -2.900852 -23.912345 -52.402503 -72.163003 0.856679 -21.717481 -38.786019 -28.806735 -17.599463 14.856939 -16.904051 -64.063744 -13.292340 121.089264 77.814374 110.776267 4.670223 -11.490032 1.242436 0.116786 -0.270191 -0.007510 21.512402 -48.114255 -50.008884 90.784571 75.552699 111.551614 -6.098589 -8.332973 -4.829714 -0.090470 -5.392852 1.886755
-16.560592 54.477963 -26.966452 61.769280 -21.764463 3.103620 -12.328021 8.676302 -1.111499 -7.118417 5.000822 -0.353611 -8.911339 6.241128 -0.539823 -7.118420 5.000824 -0.353618 -4.468904 11.505216 -5.618121 -3.537547 -13.537171 -5.059898 11.376138 -4.763369 -7.957000 19.777972 -45.818480 61.090225 17.733498 -15.930501 4.766199 10.866686 -9.297216 -10.027523 -13.672427 -6.537737 -2.936258 -23.453828 -51.760890 -72.463439 0.469629 -21.688970 -39.548492 -28.792312 -17.565514 14.993617 -17.168080 -64.003020 -13.130867 120.894176 77.811837 110.533763 4.681325 -11.471583 1.286722 0.107408 -0.277262 -0.022906 21.452121 -48.040834 -50.006284 90.775738 75.539756 111.613994 -6.046703 -8.371309 -4.788033 -0.075461 -4.526674 1.582857
-16.552386 54.480437 -26.976418 61.855210 -21.793416 3.016080 -12.243061 8.640610 -1.113836 -7.088027 4.983165 -0.370201 -8.873463 6.218802 -0.559805 -7.088030 4.983167 -0.370207 -4.246307 11.622112 -5.634973 -3.286744 -13.414482 -5.123440 11.206846 -4.761252 -7.782230 19.312943 -45.188223 61.318238 18.697581 -15.968434 5.351645 10.783519 -9.283048 -10.123500 -13.405971 -6.608711 -2.956748 -22.987390 -51.131242 -72.778988 0.103611 -21.640577 -40.357769 -28.833776 -17.540770 15.167709 -17.401726 -63.947489 -12.999193 120.694349 77.810630 110.297823 4.694042 -11.451746 1.334822 0.096040 -0.285012 -0.038390 21.399988 -47.970076 -50.011649 90.773048 75.528643 111.685544 -6.002581 -8.413177 -4.746053 -0.061139 -3.530711 1.240168
-16.545283 54.481796 -26.986016 61.945198 -21.819614 2.936800 -12.158607 8.601762 -1.118411 -7.059125 4.963125 -0.386907 -8.837438 6.193494 -0.579908 -7.059127 4.963127 -0.386913 -3.988621 11.744029 -5.653913 -2.997878 -13.286756 -5.196895 11.040887 -4.751991 -7.597859 18.839443 -44.563153 61.540636 19.639781 -15.952876 5.943335 10.718514 -9.261179 -10.240474 -13.117768 -6.645164 -2.968387 -22.525685 -50.512977 -73.064985 -0.279351 -21.533725 -41.179405 -28.877798 -17.512878 15.361584 -17.583174 -63.898089 -12.918499 120.503750 77.809976 110.085902 4.709506 -11.429076 1.384872 0.083288 -0.295947 -0.052441 21.358875 -47.895483 -50.029457 90.762615 75.517047 111.750517 -5.962396 -8.460069 -4.703073 -0.056336 -2.730121 0.966509
-16.539343 54.481940 -26.994871 62.038974 -21.845375 2.864848 -12.072392 8.564004 -1.123587 -7.030319 4.942054 -0.403985 -8.801532 6.166893 -0.600461 -7.030321 4.942056 -0.403991 -3.701647 11.866938 -5.671546 -2.678418 -13.158220 -5.275448 10.876618 -4.744095 -7.408843 18.358843 -43.929275 61.740303 20.573810 -15.894708 6.547602 10.652889 -9.239652 -10.377336 -12.822332 -6.666740 -2.980093 -22.086494 -49.897487 -73.292925 -0.736580 -21.348520 -41.966848 -28.855297 -17.464255 15.566896 -17.726671 -63.853775 -12.874755 120.332669 77.808534 109.903310 4.724082 -11.404455 1.433478 0.070823 -0.310071 -0.063249 21.326260 -47.816892 -50.056343 90.751120 75.504310 111.815175 -5.927349 -8.511923 -4.662397 -0.056330 -2.086318 0.749968
-16.537146 54.480233 -26.999981 62.088212 -21.863402 2.796094 -11.932344 8.524272 -1.108378 -7.002341 4.921654 -0.421476 -8.766671 6.141125 -0.621557 -7.002343 4.921657 -0.421481 -3.390355 11.990706 -5.684551 -2.334750 -13.028973 -5.354467 10.713859 -4.740914 -7.218755 17.882844 -43.271468 61.906623 21.515869 -15.829256 7.161515 10.580630 -9.232522 -10.518096 -12.528329 -6.687979 -2.996136 -21.673940 -49.282351 -73.464659 -1.306310 -21.075211 -42.675410 -28.716209 -17.377871 15.784139 -17.860873 -63.812585 -12.790217 120.183173 77.809870 109.741717 4.735736 -11.344404 1.478051 0.058584 -0.360159 -0.070132 21.326798 -47.749441 -50.064597 90.752414 75.495303 111.894409 -5.888762 -8.597674 -4.625748 -0.062314 -1.537868 0.577767
